<?xml version="1.0" encoding="utf-8"?>
<!-- Generator: Adobe Illustrator 16.0.0, SVG Export Plug-In . SVG Version: 6.00 Build 0)  -->
<!DOCTYPE svg PUBLIC "-//W3C//DTD SVG 1.1//EN" "http://www.w3.org/Graphics/SVG/1.1/DTD/svg11.dtd">
<svg version="1.1" id="Layer_1" xmlns="http://www.w3.org/2000/svg" xmlns:xlink="http://www.w3.org/1999/xlink" x="0px" y="0px"
	 width="1612px" height="1792px" viewBox="0 0 1612 1792" enable-background="new 0 0 1612 1792" xml:space="preserve">
<path fill="#A7A9AC" stroke="#000000" stroke-width="1.0001" stroke-miterlimit="10" d="M225.985,191.584
	c-65.504,0-117.757,61.505-117.507,123.01c0.251,61.503,50.003,123.005,117.507,123.005c69.004,0,420.027,0,491.031,0
	c69.506,0,122.758-61.503,122.006-123.007c-0.75-61.504-55.5-123.008-122.006-123.008
	C642.011,191.584,297.99,191.584,225.985,191.584z"/>
<path fill="#A7A9AC" stroke="#000000" stroke-width="1.0001" stroke-miterlimit="10" d="M215.984,715.21
	c-65.504,0-107.757,61.506-107.507,123.011c0.251,61.503,40.003,123.003,107.507,123.003c69.004,0,440.027,0,511.031,0
	c69.505,0,112.757-61.502,112.005-123.006c-0.748-61.505-45.5-123.008-112.005-123.008C652.01,715.21,287.989,715.21,215.984,715.21
	z"/>
</svg>
